<?xml version="1.0" standalone="no"?>
<svg
  width="600"
  height="600"
  viewBox="0 0 600 600"
  xmlns="http://www.w3.org/2000/svg"
>
  <g transform="translate(300,300)">
    <path d="M123.9,-178.3C160.6,-169.2,190.4,-134.9,206.8,-95.4C223.3,-56,226.5,-11.5,203.1,16.8C179.8,45.1,130,57.3,98.8,75.9C67.6,94.6,55.1,119.7,31.9,141.6C8.7,163.4,-25.1,182,-60,182C-94.9,181.9,-131,163.3,-138.6,132.4C-146.3,101.5,-125.6,58.3,-119.6,24.2C-113.6,-9.9,-122.3,-34.9,-120.5,-61.8C-118.7,-88.7,-106.4,-117.5,-84.5,-133.4C-62.7,-149.3,-31.4,-152.1,6.1,-161.7C43.6,-171.2,87.2,-187.4,123.9,-178.3Z" fill="#e2e8f0" />
  </g>
</svg>
  